<svg width="536" height="345" viewBox="0 0 536 345" fill="none" xmlns="http://www.w3.org/2000/svg">
<g clip-path="url(#clip0_4395_58238)">
<mask id="path-1-inside-1_4395_58238" fill="white">
<path d="M0 0H103V345H0V0Z"/>
</mask>
<path d="M0 0H103V345H0V0Z" fill="#374151"/>
<path d="M21.1949 16.853C21.1671 17.0445 21.0409 17.3045 20.8961 17.5307C20.7134 17.816 20.4234 18.0158 20.0916 18.0852L18.6298 18.3909C18.3948 18.44 18.1818 18.563 18.0218 18.7418L17.0634 19.8131C16.8832 20.0145 16.7573 19.9665 16.7573 19.6964C16.7552 19.7064 16.2816 20.9276 17.5365 21.6514C18.0187 21.9295 18.7127 21.8295 19.1949 21.5514L21.7496 20.0779C22.705 19.5268 23.3796 18.5945 23.6038 17.5153C23.6127 17.4727 23.6195 17.4298 23.6269 17.387L21.1949 16.853Z" fill="url(#paint0_linear_4395_58238)"/>
<path d="M20.5323 15.3816C21.0145 15.6597 21.2115 16.0737 21.2114 16.6299C21.2114 16.7054 21.2055 16.78 21.1948 16.8535L22.2242 17.2957L23.6268 17.3875C23.8064 16.348 23.4544 15.2782 22.8235 14.4277C22.3486 13.7877 21.7376 13.2324 21.0031 12.8087C20.4064 12.4645 19.7863 12.2377 19.1633 12.1133L18.4633 13.0198L18.2422 14.0606L20.5323 15.3816Z" fill="url(#paint1_linear_4395_58238)"/>
<path d="M12.293 16.1448C12.2928 16.1457 12.2935 16.1459 12.2938 16.1451C12.3478 15.9831 12.4155 15.8023 12.5001 15.6093C12.9417 14.6006 13.7929 13.9279 14.84 13.5849C15.8872 13.242 17.0305 13.3622 17.9848 13.9126L18.2422 14.0611L19.1633 12.1138C16.2337 11.5287 13.2395 13.2498 12.2967 16.1336C12.2963 16.1349 12.2947 16.1398 12.293 16.1448Z" fill="url(#paint2_linear_4395_58238)"/>
<path d="M19.0922 21.5524C18.6101 21.8305 18.016 21.8305 17.5339 21.5524C17.4684 21.5146 17.4067 21.4722 17.3484 21.4262L16.5004 22.0092L15.7695 23.1903C16.5808 23.8654 17.6342 24.0824 18.6868 23.9617C19.479 23.8708 20.266 23.6199 21.0005 23.1962C21.5972 22.852 22.1038 22.4289 22.5232 21.9521L22.0874 20.8932L21.3823 20.2314L19.0922 21.5524Z" fill="url(#paint3_linear_4395_58238)"/>
<path d="M17.3501 21.4261C16.9786 21.1335 16.7564 20.6847 16.7564 20.204V20.156V16.1524C16.7564 15.926 16.8231 15.8875 17.0194 16.0007C16.7171 15.8264 16.0188 15.2278 15.1565 15.7251C14.6744 16.0032 14.2773 16.6171 14.2773 17.1733V20.1205C14.2773 21.2227 14.8482 22.3724 15.6716 23.1059C15.7041 23.135 15.7379 23.1623 15.7713 23.1901L17.3501 21.4261Z" fill="url(#paint4_linear_4395_58238)"/>
<path d="M22.4645 13.9925C22.4639 13.9918 22.4634 13.9924 22.464 13.993C22.5774 14.1207 22.7002 14.2697 22.8253 14.4394C23.4788 15.3259 23.7229 16.4486 23.4967 17.5261C23.2704 18.6036 22.5946 19.5326 21.6402 20.0831L21.3828 20.2316L22.5237 21.9522C24.4957 19.7101 24.5008 16.2589 22.4724 14.0013C22.4715 14.0003 22.4681 13.9964 22.4645 13.9925Z" fill="url(#paint5_linear_4395_58238)"/>
<path d="M14.3791 17.1736C14.3791 16.6173 14.6761 16.1034 15.1582 15.8253C15.2237 15.7875 15.2913 15.7554 15.3604 15.7278L15.279 14.7027L14.7073 13.5298C13.7164 13.8941 12.915 14.647 12.4933 15.6182C12.1759 16.349 12 17.1553 12 18.0027C12 18.6911 12.1135 19.341 12.3171 19.9422L13.4529 20.0946L14.3791 19.8154V17.1736Z" fill="url(#paint6_linear_4395_58238)"/>
<path d="M15.3601 15.7282C15.7995 15.5531 16.2997 15.5853 16.7164 15.8257L16.7579 15.8496L20.094 17.7739C20.3281 17.9089 20.3068 18.0417 20.0423 18.097L20.2347 18.0568C20.488 18.0038 20.7193 17.8744 20.8963 17.6858C21.2005 17.3616 21.3121 16.9704 21.3121 16.6309C21.3121 16.0746 21.0151 15.5607 20.533 15.2826L17.9783 13.809C17.0228 13.2579 15.8774 13.1404 14.8298 13.486C14.7884 13.4997 14.7478 13.5152 14.707 13.5302L15.3601 15.7282Z" fill="url(#paint7_linear_4395_58238)"/>
<path d="M19.2498 23.8709C19.2506 23.8707 19.2505 23.87 19.2496 23.8701C19.0822 23.9044 18.8916 23.9362 18.682 23.9596C17.5868 24.0817 16.4915 23.7316 15.6706 22.9971C14.8497 22.2626 14.3823 21.2133 14.3823 20.1124L14.3823 19.8154L12.3203 19.9422C13.2779 22.7695 16.267 24.4995 19.2381 23.8733C19.2395 23.873 19.2445 23.872 19.2498 23.8709Z" fill="url(#paint8_linear_4395_58238)"/>
<rect x="28" y="15.5005" width="36" height="5" rx="2.5" fill="#9CA3AF"/>
<rect x="12" y="36.001" width="6" height="6" rx="3" fill="#6B7280"/>
<rect x="22" y="36.501" width="57" height="5" rx="2.5" fill="#9CA3AF"/>
<rect x="12" y="52.001" width="6" height="6" rx="3" fill="#6B7280"/>
<rect x="22" y="52.501" width="48.4961" height="5" rx="2.5" fill="#9CA3AF"/>
<rect x="12" y="68.001" width="6" height="6" rx="3" fill="#6B7280"/>
<rect x="22" y="68.501" width="61" height="5" rx="2.5" fill="#9CA3AF"/>
<rect x="12" y="84.001" width="6" height="6" rx="3" fill="#6B7280"/>
<rect x="22" y="84.501" width="39" height="5" rx="2.5" fill="#9CA3AF"/>
<rect x="12" y="100.001" width="6" height="6" rx="3" fill="#6B7280"/>
<rect x="22" y="100.501" width="61" height="5" rx="2.5" fill="#9CA3AF"/>
<path d="M91 120.501H12V121.501H91V120.501Z" fill="#4B5563" mask="url(#path-14-inside-2_4395_58238)"/>
<rect x="12" y="136.001" width="6" height="6" rx="3" fill="#6B7280"/>
<rect x="22" y="136.501" width="42" height="5" rx="2.5" fill="#9CA3AF"/>
<rect x="12" y="152.001" width="6" height="6" rx="3" fill="#6B7280"/>
<rect x="22" y="152.501" width="25" height="5" rx="2.5" fill="#9CA3AF"/>
<rect x="12" y="168.001" width="6" height="6" rx="3" fill="#6B7280"/>
<rect x="22" y="168.501" width="41" height="5" rx="2.5" fill="#9CA3AF"/>
<rect x="32" y="328" width="5" height="5" rx="2.5" fill="#6B7280"/>
<rect x="49" y="328" width="5" height="5" rx="2.5" fill="#6B7280"/>
<rect x="66" y="328" width="5" height="5" rx="2.5" fill="#6B7280"/>
<path d="M0 0H103H0ZM103 345H0H103ZM0 345V0V345ZM103.5 0V345H102.5V0H103.5Z" fill="#4B5563" mask="url(#path-1-inside-1_4395_58238)"/>
<path d="M320 74V80M320 80V86M320 80H326M320 80H314" stroke="#4B5563" stroke-width="1.6" stroke-linecap="round" stroke-linejoin="round"/>
<rect x="120.5" y="16.5" width="399" height="127" rx="5.5" stroke="#374151" stroke-dasharray="2 2"/>
<path d="M166 186V192M166 192V198M166 192H172M166 192H160" stroke="#4B5563" stroke-width="1.6" stroke-linecap="round" stroke-linejoin="round"/>
<rect x="120.5" y="156.5" width="90" height="71" rx="5.5" stroke="#374151" stroke-dasharray="2 2"/>
<path d="M269 186V192M269 192V198M269 192H275M269 192H263" stroke="#4B5563" stroke-width="1.6" stroke-linecap="round" stroke-linejoin="round"/>
<rect x="223.5" y="156.5" width="90" height="71" rx="5.5" stroke="#374151" stroke-dasharray="2 2"/>
<path d="M372 186V192M372 192V198M372 192H378M372 192H366" stroke="#4B5563" stroke-width="1.6" stroke-linecap="round" stroke-linejoin="round"/>
<rect x="326.5" y="156.5" width="90" height="71" rx="5.5" stroke="#374151" stroke-dasharray="2 2"/>
<path d="M475 186V192M475 192V198M475 192H481M475 192H469" stroke="#4B5563" stroke-width="1.6" stroke-linecap="round" stroke-linejoin="round"/>
<rect x="429.5" y="156.5" width="90" height="71" rx="5.5" stroke="#374151" stroke-dasharray="2 2"/>
<path d="M217 279V285M217 285V291M217 285H223M217 285H211" stroke="#4B5563" stroke-width="1.6" stroke-linecap="round" stroke-linejoin="round"/>
<rect x="120.5" y="240.5" width="193" height="88" rx="5.5" stroke="#374151" stroke-dasharray="2 2"/>
<path d="M423 279V285M423 285V291M423 285H429M423 285H417" stroke="#4B5563" stroke-width="1.6" stroke-linecap="round" stroke-linejoin="round"/>
<rect x="326.5" y="240.5" width="193" height="88" rx="5.5" stroke="#374151" stroke-dasharray="2 2"/>
</g>
<defs>
<linearGradient id="paint0_linear_4395_58238" x1="19.5225" y1="20.9137" x2="20.7029" y2="16.8021" gradientUnits="userSpaceOnUse">
<stop stop-color="#1724C9"/>
<stop offset="1" stop-color="#1C64F2"/>
</linearGradient>
<linearGradient id="paint1_linear_4395_58238" x1="22.2412" y1="15.9" x2="19.136" y2="12.8058" gradientUnits="userSpaceOnUse">
<stop stop-color="#1C64F2"/>
<stop offset="1" stop-color="#0092FF"/>
</linearGradient>
<linearGradient id="paint2_linear_4395_58238" x1="18.0614" y1="13.8831" x2="13.3772" y2="14.1791" gradientUnits="userSpaceOnUse">
<stop stop-color="#0092FF"/>
<stop offset="1" stop-color="#45B2FF"/>
</linearGradient>
<linearGradient id="paint3_linear_4395_58238" x1="17.742" y1="22.7496" x2="21.9488" y2="21.6144" gradientUnits="userSpaceOnUse">
<stop stop-color="#1C64F2"/>
<stop offset="1" stop-color="#0092FF"/>
</linearGradient>
<linearGradient id="paint4_linear_4395_58238" x1="14.7244" y1="17.8814" x2="17.711" y2="20.9763" gradientUnits="userSpaceOnUse">
<stop stop-color="#1724C9"/>
<stop offset="1" stop-color="#1C64F2"/>
</linearGradient>
<linearGradient id="paint5_linear_4395_58238" x1="21.5419" y1="20.1143" x2="23.6258" y2="15.9135" gradientUnits="userSpaceOnUse">
<stop stop-color="#0092FF"/>
<stop offset="1" stop-color="#45B2FF"/>
</linearGradient>
<linearGradient id="paint6_linear_4395_58238" x1="14.0117" y1="15.4245" x2="12.8965" y2="19.6158" gradientUnits="userSpaceOnUse">
<stop stop-color="#1C64F2"/>
<stop offset="1" stop-color="#0092FF"/>
</linearGradient>
<linearGradient id="paint7_linear_4395_58238" x1="19.7042" y1="15.2255" x2="15.6293" y2="16.2401" gradientUnits="userSpaceOnUse">
<stop stop-color="#1724C9"/>
<stop offset="1" stop-color="#1C64F2"/>
</linearGradient>
<linearGradient id="paint8_linear_4395_58238" x1="14.406" y1="20.0096" x2="17.0034" y2="23.9167" gradientUnits="userSpaceOnUse">
<stop stop-color="#0092FF"/>
<stop offset="1" stop-color="#45B2FF"/>
</linearGradient>
<clipPath id="clip0_4395_58238">
<rect width="536" height="345" fill="white"/>
</clipPath>
</defs>
</svg>
